<?xml version="1.0" encoding="utf-8" standalone="no"?>
<!DOCTYPE svg PUBLIC "-//W3C//DTD SVG 1.1//EN"
  "http://www.w3.org/Graphics/SVG/1.1/DTD/svg11.dtd">
<svg xmlns:xlink="http://www.w3.org/1999/xlink" width="144pt" height="126pt" viewBox="0 0 144 126" xmlns="http://www.w3.org/2000/svg" version="1.1">
 <metadata>
  <rdf:RDF xmlns:dc="http://purl.org/dc/elements/1.1/" xmlns:cc="http://creativecommons.org/ns#" xmlns:rdf="http://www.w3.org/1999/02/22-rdf-syntax-ns#">
   <cc:Work>
    <dc:type rdf:resource="http://purl.org/dc/dcmitype/StillImage"/>
    <dc:date>2024-08-27T10:47:08.578695</dc:date>
    <dc:format>image/svg+xml</dc:format>
    <dc:creator>
     <cc:Agent>
      <dc:title>Matplotlib v3.8.4, https://matplotlib.org/</dc:title>
     </cc:Agent>
    </dc:creator>
   </cc:Work>
  </rdf:RDF>
 </metadata>
 <defs>
  <style type="text/css">*{stroke-linejoin: round; stroke-linecap: butt}</style>
 </defs>
 <g id="figure_1">
  <g id="patch_1">
   <path d="M 0 126 
L 144 126 
L 144 0 
L 0 0 
z
" style="fill: #ffffff"/>
  </g>
  <g id="axes_1">
   <g id="patch_2">
    <path d="M 18 112.14 
L 129.6 112.14 
L 129.6 15.12 
L 18 15.12 
z
" style="fill: #ffffff"/>
   </g>
   <g id="matplotlib.axis_1">
    <g id="xtick_1">
     <g id="line2d_1">
      <defs>
       <path id="mfabcfb14df" d="M 0 0 
L 0 3.5 
" style="stroke: #000000; stroke-width: 0.8"/>
      </defs>
      <g>
       <use xlink:href="#mfabcfb14df" x="23.072727" y="112.14" style="stroke: #000000; stroke-width: 0.8"/>
      </g>
     </g>
     <g id="text_1">
      <!-- $\mathdefault{0}$ -->
      <g transform="translate(20.58206 126.058498) scale(0.1 -0.1)">
       <defs>
        <path id="CMSS17-30" d="M 2758 2073 
C 2758 2439 2752 3120 2490 3647 
C 2227 4153 1805 4288 1504 4288 
C 1069 4288 698 4031 506 3621 
C 301 3191 243 2748 243 2073 
C 243 1611 262 1046 493 551 
C 755 6 1197 -128 1498 -128 
C 1894 -128 2278 83 2496 525 
C 2720 988 2758 1495 2758 2073 
z
M 1498 262 
C 1011 262 864 821 819 1007 
C 742 1328 730 1636 730 2144 
C 730 2542 730 2992 851 3345 
C 998 3756 1254 3897 1498 3897 
C 1971 3897 2125 3422 2176 3255 
C 2272 2915 2272 2516 2272 2144 
C 2272 1546 2272 262 1498 262 
z
" transform="scale(0.015625)"/>
       </defs>
       <use xlink:href="#CMSS17-30" transform="scale(0.996264)"/>
      </g>
     </g>
    </g>
    <g id="xtick_2">
     <g id="line2d_2">
      <g>
       <use xlink:href="#mfabcfb14df" x="63.654545" y="112.14" style="stroke: #000000; stroke-width: 0.8"/>
      </g>
     </g>
     <g id="text_2">
      <!-- $\mathdefault{200}$ -->
      <g transform="translate(56.182543 126.058498) scale(0.1 -0.1)">
       <defs>
        <path id="CMSS17-32" d="M 1651 1353 
C 1830 1538 2099 1761 2285 1984 
C 2464 2201 2701 2507 2701 2953 
C 2701 3655 2227 4288 1421 4288 
C 787 4288 422 3891 250 3272 
L 499 2928 
C 640 3508 838 3878 1338 3878 
C 1888 3878 2195 3431 2195 2940 
C 2195 2354 1747 1901 1408 1563 
C 1030 1187 659 805 301 409 
L 301 0 
L 2701 0 
L 2701 435 
L 1613 435 
C 1536 435 1459 428 1382 428 
L 742 428 
L 742 435 
L 1651 1353 
z
" transform="scale(0.015625)"/>
       </defs>
       <use xlink:href="#CMSS17-32" transform="scale(0.996264)"/>
       <use xlink:href="#CMSS17-30" transform="translate(46.843624 0) scale(0.996264)"/>
       <use xlink:href="#CMSS17-30" transform="translate(93.687247 0) scale(0.996264)"/>
      </g>
     </g>
    </g>
    <g id="xtick_3">
     <g id="line2d_3">
      <g>
       <use xlink:href="#mfabcfb14df" x="104.236364" y="112.14" style="stroke: #000000; stroke-width: 0.8"/>
      </g>
     </g>
     <g id="text_3">
      <!-- $\mathdefault{400}$ -->
      <g transform="translate(96.764361 126.058498) scale(0.1 -0.1)">
       <defs>
        <path id="CMSS17-34" d="M 2253 1088 
L 2835 1088 
L 2835 1478 
L 2253 1478 
L 2253 4224 
L 1690 4224 
L 166 1478 
L 166 1088 
L 1747 1088 
L 1747 0 
L 2253 0 
L 2253 1088 
z
M 659 1478 
C 1030 2139 1766 3474 1766 3927 
L 1766 1478 
L 659 1478 
z
" transform="scale(0.015625)"/>
       </defs>
       <use xlink:href="#CMSS17-34" transform="scale(0.996264)"/>
       <use xlink:href="#CMSS17-30" transform="translate(46.843624 0) scale(0.996264)"/>
       <use xlink:href="#CMSS17-30" transform="translate(93.687247 0) scale(0.996264)"/>
      </g>
     </g>
    </g>
    <g id="text_4">
     <!-- Time (generations) -->
     <g transform="translate(33.96322 139.467657) scale(0.1 -0.1)">
      <defs>
       <path id="CMSS17-54" d="M 2317 3987 
L 2848 3987 
C 2925 3987 3002 3980 3078 3980 
L 3878 3980 
L 3878 4396 
L 218 4396 
L 218 3980 
L 1018 3980 
C 1094 3980 1171 3987 1248 3987 
L 1779 3987 
L 1779 0 
L 2317 0 
L 2317 3987 
z
" transform="scale(0.015625)"/>
       <path id="CMSS17-69" d="M 979 4224 
L 442 4224 
L 442 3686 
L 979 3686 
L 979 4224 
z
M 947 2752 
L 474 2752 
L 474 0 
L 947 0 
L 947 2752 
z
" transform="scale(0.015625)"/>
       <path id="CMSS17-6d" d="M 4288 1878 
C 4288 2309 4179 2816 3462 2816 
C 2982 2816 2694 2515 2566 2328 
C 2451 2668 2182 2816 1798 2816 
C 1363 2816 1088 2566 941 2386 
L 941 2783 
L 474 2783 
L 474 0 
L 960 0 
L 960 1556 
C 960 1936 1101 2425 1555 2425 
C 2138 2425 2138 2013 2138 1826 
L 2138 0 
L 2624 0 
L 2624 1556 
C 2624 1936 2765 2425 3219 2425 
C 3802 2425 3802 2013 3802 1826 
L 3802 0 
L 4288 0 
L 4288 1878 
z
" transform="scale(0.015625)"/>
       <path id="CMSS17-65" d="M 2502 1375 
C 2502 1587 2490 2001 2285 2347 
C 2061 2713 1696 2816 1421 2816 
C 755 2816 192 2184 192 1363 
C 192 579 774 -64 1510 -64 
C 1798 -64 2150 19 2470 249 
C 2470 275 2458 414 2451 421 
C 2451 433 2432 629 2432 655 
C 2125 408 1773 326 1517 326 
C 1107 326 666 667 646 1375 
L 2502 1375 
z
M 698 1728 
C 781 2086 1062 2425 1421 2425 
C 1517 2425 1965 2412 2080 1728 
L 698 1728 
z
" transform="scale(0.015625)"/>
       <path id="CMSS17-28" d="M 1613 4800 
C 1267 4447 474 3627 474 1603 
C 474 -428 1267 -1242 1613 -1600 
L 2003 -1600 
C 1216 -781 960 366 960 1596 
C 960 2820 1203 3973 2003 4800 
L 1613 4800 
z
" transform="scale(0.015625)"/>
       <path id="CMSS17-67" d="M 2848 2816 
C 2483 2809 2170 2739 1914 2617 
C 1702 2783 1485 2816 1338 2816 
C 781 2816 358 2356 358 1824 
C 358 1481 550 1222 563 1209 
C 448 1049 384 876 384 684 
C 384 460 474 300 544 211 
C 211 6 166 -308 166 -429 
C 166 -896 749 -1280 1498 -1280 
C 2253 -1280 2835 -896 2835 -423 
C 2835 460 1856 467 1587 467 
L 1069 467 
C 973 467 717 467 717 793 
C 717 921 774 1004 781 1011 
C 877 940 1075 832 1338 832 
C 1869 832 2310 1279 2310 1824 
C 2310 2128 2170 2349 2112 2425 
L 2131 2425 
C 2150 2425 2419 2444 2515 2444 
C 2720 2444 2739 2438 2918 2419 
L 2848 2816 
z
M 1338 1184 
C 1120 1184 813 1317 813 1824 
C 813 2375 1165 2463 1331 2463 
C 1549 2463 1856 2330 1856 1824 
C 1856 1272 1504 1184 1338 1184 
z
M 1581 0 
C 1734 0 2381 0 2381 -436 
C 2381 -711 1984 -928 1504 -928 
C 1018 -928 621 -717 621 -429 
C 621 -397 621 0 1062 0 
L 1581 0 
z
" transform="scale(0.015625)"/>
       <path id="CMSS17-6e" d="M 2618 1878 
C 2618 2283 2522 2816 1798 2816 
C 1389 2816 1120 2604 941 2386 
L 941 2783 
L 474 2783 
L 474 0 
L 960 0 
L 960 1556 
C 960 1962 1114 2425 1549 2425 
C 2112 2425 2131 2045 2131 1826 
L 2131 0 
L 2618 0 
L 2618 1878 
z
" transform="scale(0.015625)"/>
       <path id="CMSS17-72" d="M 954 1369 
C 954 1974 1395 2379 1958 2392 
L 1958 2816 
C 1549 2809 1165 2604 934 2270 
L 934 2783 
L 480 2783 
L 480 0 
L 954 0 
L 954 1369 
z
" transform="scale(0.015625)"/>
       <path id="CMSS17-61" d="M 2406 1789 
C 2406 2399 1978 2816 1402 2816 
C 1120 2816 813 2764 461 2559 
L 499 2133 
C 659 2250 934 2438 1395 2438 
C 1722 2438 1920 2185 1920 1782 
L 1920 1536 
C 896 1504 256 1209 256 711 
C 256 452 416 -64 947 -64 
C 1043 -64 1562 -52 1933 224 
L 1933 -13 
L 2406 -13 
L 2406 1789 
z
M 1920 824 
C 1920 711 1920 559 1728 446 
C 1562 339 1350 326 1261 326 
C 941 326 723 503 723 723 
C 723 1165 1722 1209 1920 1216 
L 1920 824 
z
" transform="scale(0.015625)"/>
       <path id="CMSS17-74" d="M 1069 2380 
L 1901 2380 
L 1901 2752 
L 1069 2752 
L 1069 3520 
L 614 3520 
L 614 2752 
L 109 2752 
L 109 2380 
L 602 2380 
L 602 751 
C 602 384 685 -64 1107 -64 
C 1427 -64 1722 25 2003 172 
L 1901 551 
C 1747 416 1562 339 1363 339 
C 1082 339 1069 699 1069 860 
L 1069 2380 
z
" transform="scale(0.015625)"/>
       <path id="CMSS17-6f" d="M 2829 1356 
C 2829 2175 2221 2816 1504 2816 
C 768 2816 173 2156 173 1356 
C 173 544 787 -64 1498 -64 
C 2227 -64 2829 563 2829 1356 
z
M 1504 339 
C 1050 339 659 710 659 1407 
C 659 2150 1114 2425 1498 2425 
C 1914 2425 2342 2124 2342 1407 
C 2342 684 1926 339 1504 339 
z
" transform="scale(0.015625)"/>
       <path id="CMSS17-73" d="M 2061 2623 
C 1683 2803 1389 2816 1197 2816 
C 742 2816 198 2655 198 2009 
C 198 1363 902 1222 1094 1183 
C 1389 1126 1715 1062 1715 742 
C 1715 339 1254 339 1171 339 
C 915 339 563 409 243 639 
L 166 211 
C 531 0 883 -64 1178 -64 
C 1965 -64 2163 416 2163 780 
C 2163 1094 1984 1305 1862 1401 
C 1651 1567 1574 1587 1050 1695 
C 960 1708 646 1779 646 2067 
C 646 2431 1050 2431 1139 2431 
C 1555 2431 1811 2303 1984 2207 
L 2061 2623 
z
" transform="scale(0.015625)"/>
       <path id="CMSS17-29" d="M 723 -1600 
C 1069 -1248 1862 -428 1862 1596 
C 1862 3627 1069 4440 723 4800 
L 333 4800 
C 1120 3979 1376 2833 1376 1603 
C 1376 379 1133 -774 333 -1600 
L 723 -1600 
z
" transform="scale(0.015625)"/>
      </defs>
      <use xlink:href="#CMSS17-54" transform="scale(0.996264)"/>
      <use xlink:href="#CMSS17-69" transform="translate(63.819454 0) scale(0.996264)"/>
      <use xlink:href="#CMSS17-6d" transform="translate(86.000177 0) scale(0.996264)"/>
      <use xlink:href="#CMSS17-65" transform="translate(160.229431 0) scale(0.996264)"/>
      <use xlink:href="#CMSS17-28" transform="translate(233.097366 0) scale(0.996264)"/>
      <use xlink:href="#CMSS17-67" transform="translate(269.53128 0) scale(0.996264)"/>
      <use xlink:href="#CMSS17-65" transform="translate(316.374904 0) scale(0.996264)"/>
      <use xlink:href="#CMSS17-6e" transform="translate(358.013726 0) scale(0.996264)"/>
      <use xlink:href="#CMSS17-65" transform="translate(406.218669 0) scale(0.996264)"/>
      <use xlink:href="#CMSS17-72" transform="translate(447.857491 0) scale(0.996264)"/>
      <use xlink:href="#CMSS17-61" transform="translate(479.767264 0) scale(0.996264)"/>
      <use xlink:href="#CMSS17-74" transform="translate(524.689184 0) scale(0.996264)"/>
      <use xlink:href="#CMSS17-69" transform="translate(558.520751 0) scale(0.996264)"/>
      <use xlink:href="#CMSS17-6f" transform="translate(580.701474 0) scale(0.996264)"/>
      <use xlink:href="#CMSS17-6e" transform="translate(627.545098 0) scale(0.996264)"/>
      <use xlink:href="#CMSS17-73" transform="translate(675.750041 0) scale(0.996264)"/>
      <use xlink:href="#CMSS17-29" transform="translate(711.663583 0) scale(0.996264)"/>
     </g>
    </g>
   </g>
   <g id="matplotlib.axis_2">
    <g id="ytick_1">
     <g id="line2d_4">
      <defs>
       <path id="m0d7c7e9125" d="M 0 0 
L -3.5 0 
" style="stroke: #000000; stroke-width: 0.8"/>
      </defs>
      <g>
       <use xlink:href="#m0d7c7e9125" x="18" y="112.14" style="stroke: #000000; stroke-width: 0.8"/>
      </g>
     </g>
     <g id="text_5">
      <!-- $\mathdefault{10^{-4}}$ -->
      <g transform="translate(-8.894238 115.599249) scale(0.1 -0.1)">
       <defs>
        <path id="CMSS17-31" d="M 1818 4288 
L 1696 4288 
C 1350 3949 947 3902 538 3891 
L 538 3520 
C 723 3526 1024 3539 1325 3673 
L 1325 371 
L 570 371 
L 570 0 
L 2573 0 
L 2573 371 
L 1818 371 
L 1818 4288 
z
" transform="scale(0.015625)"/>
        <path id="CMSY10-0" d="M 4218 1472 
C 4326 1472 4442 1472 4442 1600 
C 4442 1728 4326 1728 4218 1728 
L 755 1728 
C 646 1728 531 1728 531 1600 
C 531 1472 646 1472 755 1472 
L 4218 1472 
z
" transform="scale(0.015625)"/>
       </defs>
       <use xlink:href="#CMSS17-31" transform="scale(0.996264)"/>
       <use xlink:href="#CMSS17-30" transform="translate(46.843624 0) scale(0.996264)"/>
       <use xlink:href="#CMSY10-0" transform="translate(93.687247 36.153639) scale(0.697382)"/>
       <use xlink:href="#CMSS17-34" transform="translate(147.92824 36.153639) scale(0.697382)"/>
      </g>
     </g>
    </g>
    <g id="ytick_2">
     <g id="line2d_5">
      <g>
       <use xlink:href="#m0d7c7e9125" x="18" y="84.445736" style="stroke: #000000; stroke-width: 0.8"/>
      </g>
     </g>
     <g id="text_6">
      <!-- $\mathdefault{10^{0}}$ -->
      <g transform="translate(-2.667573 87.904985) scale(0.1 -0.1)">
       <use xlink:href="#CMSS17-31" transform="scale(0.996264)"/>
       <use xlink:href="#CMSS17-30" transform="translate(46.843624 0) scale(0.996264)"/>
       <use xlink:href="#CMSS17-30" transform="translate(93.687247 36.153639) scale(0.697382)"/>
      </g>
     </g>
    </g>
    <g id="ytick_3">
     <g id="line2d_6">
      <g>
       <use xlink:href="#m0d7c7e9125" x="18" y="56.751471" style="stroke: #000000; stroke-width: 0.8"/>
      </g>
     </g>
     <g id="text_7">
      <!-- $\mathdefault{10^{4}}$ -->
      <g transform="translate(-2.667573 60.21072) scale(0.1 -0.1)">
       <use xlink:href="#CMSS17-31" transform="scale(0.996264)"/>
       <use xlink:href="#CMSS17-30" transform="translate(46.843624 0) scale(0.996264)"/>
       <use xlink:href="#CMSS17-34" transform="translate(93.687247 36.153639) scale(0.697382)"/>
      </g>
     </g>
    </g>
    <g id="ytick_4">
     <g id="line2d_7">
      <g>
       <use xlink:href="#m0d7c7e9125" x="18" y="29.057207" style="stroke: #000000; stroke-width: 0.8"/>
      </g>
     </g>
     <g id="text_8">
      <!-- $\mathdefault{10^{8}}$ -->
      <g transform="translate(-2.667573 32.516456) scale(0.1 -0.1)">
       <defs>
        <path id="CMSS17-38" d="M 1933 2246 
C 2419 2406 2669 2793 2669 3174 
C 2669 3774 2157 4288 1504 4288 
C 826 4288 333 3755 333 3174 
C 333 2799 576 2412 1069 2246 
C 442 2003 250 1516 250 1152 
C 250 448 819 -128 1498 -128 
C 2202 -128 2752 460 2752 1152 
C 2752 1574 2502 2022 1933 2246 
z
M 1504 2438 
C 1075 2438 787 2728 787 3167 
C 787 3613 1075 3897 1504 3897 
C 1901 3897 2214 3639 2214 3167 
C 2214 2703 1907 2438 1504 2438 
z
M 1504 268 
C 1139 268 749 518 749 1158 
C 749 1817 1184 2048 1498 2048 
C 1843 2048 2253 1804 2253 1158 
C 2253 492 1830 268 1504 268 
z
" transform="scale(0.015625)"/>
       </defs>
       <use xlink:href="#CMSS17-31" transform="scale(0.996264)"/>
       <use xlink:href="#CMSS17-30" transform="translate(46.843624 0) scale(0.996264)"/>
       <use xlink:href="#CMSS17-38" transform="translate(93.687247 36.153639) scale(0.697382)"/>
      </g>
     </g>
    </g>
    <g id="text_9">
     <!-- Population density (mL$^{-1}$) -->
     <g transform="translate(-15.384898 119.432984) rotate(-90) scale(0.1 -0.1)">
      <defs>
       <path id="CMSS17-50" d="M 2106 1856 
C 2874 1856 3501 2447 3501 3139 
C 3501 3818 2899 4416 2067 4416 
L 570 4416 
L 570 0 
L 1107 0 
L 1107 1856 
L 2106 1856 
z
M 1926 4057 
C 2669 4057 2995 3598 2995 3139 
C 2995 2711 2694 2227 1926 2227 
L 1094 2227 
L 1094 4057 
L 1926 4057 
z
" transform="scale(0.015625)"/>
       <path id="CMSS17-70" d="M 966 275 
C 1178 70 1466 -64 1773 -64 
C 2368 -64 2880 553 2880 1382 
C 2880 2147 2496 2816 1946 2816 
C 1626 2816 1242 2700 954 2470 
L 954 2764 
L 480 2764 
L 480 -1280 
L 966 -1280 
L 966 275 
z
M 966 2088 
C 1018 2166 1235 2412 1587 2412 
C 2035 2412 2394 1946 2394 1382 
C 2394 741 1958 326 1530 326 
C 1402 326 1267 358 1139 468 
C 966 624 966 721 966 812 
L 966 2088 
z
" transform="scale(0.015625)"/>
       <path id="CMSS17-75" d="M 2618 2752 
L 2131 2752 
L 2131 976 
C 2131 500 1786 307 1421 307 
C 998 307 960 448 960 712 
L 960 2752 
L 474 2752 
L 474 680 
C 474 179 646 -64 1088 -64 
C 1306 -64 1798 -13 2144 307 
L 2144 -13 
L 2618 -13 
L 2618 2752 
z
" transform="scale(0.015625)"/>
       <path id="CMSS17-6c" d="M 947 4416 
L 474 4416 
L 474 0 
L 947 0 
L 947 4416 
z
" transform="scale(0.015625)"/>
       <path id="CMSS17-64" d="M 2611 4416 
L 2138 4416 
L 2138 2495 
C 1939 2662 1613 2816 1254 2816 
C 672 2816 211 2179 211 1375 
C 211 572 666 -64 1235 -64 
C 1677 -64 1971 172 2125 307 
L 2125 -13 
L 2611 -13 
L 2611 4416 
z
M 2125 851 
C 2125 760 2125 663 1926 488 
C 1798 378 1645 326 1498 326 
C 1152 326 698 585 698 1369 
C 698 2185 1210 2425 1562 2425 
C 1798 2425 1990 2308 2125 2114 
L 2125 851 
z
" transform="scale(0.015625)"/>
       <path id="CMSS17-79" d="M 2675 2752 
L 2176 2752 
C 1632 1293 1446 701 1434 383 
L 1427 383 
C 1408 695 1126 1459 902 2006 
L 602 2752 
L 83 2752 
L 1216 14 
C 1146 -177 1043 -464 1011 -527 
C 870 -884 774 -884 672 -884 
C 646 -884 442 -877 211 -807 
L 250 -1229 
C 410 -1261 570 -1280 685 -1280 
C 845 -1280 1165 -1280 1459 -495 
L 2675 2752 
z
" transform="scale(0.015625)"/>
       <path id="CMSS17-4c" d="M 1670 416 
C 1594 416 1517 409 1440 409 
L 1101 409 
L 1101 4416 
L 563 4416 
L 563 0 
L 3002 0 
L 3002 416 
L 1670 416 
z
" transform="scale(0.015625)"/>
      </defs>
      <use xlink:href="#CMSS17-50" transform="scale(0.996264)"/>
      <use xlink:href="#CMSS17-6f" transform="translate(57.133132 0) scale(0.996264)"/>
      <use xlink:href="#CMSS17-70" transform="translate(103.976756 0) scale(0.996264)"/>
      <use xlink:href="#CMSS17-75" transform="translate(152.181699 0) scale(0.996264)"/>
      <use xlink:href="#CMSS17-6c" transform="translate(200.386642 0) scale(0.996264)"/>
      <use xlink:href="#CMSS17-61" transform="translate(222.567365 0) scale(0.996264)"/>
      <use xlink:href="#CMSS17-74" transform="translate(267.489286 0) scale(0.996264)"/>
      <use xlink:href="#CMSS17-69" transform="translate(301.320852 0) scale(0.996264)"/>
      <use xlink:href="#CMSS17-6f" transform="translate(323.501576 0) scale(0.996264)"/>
      <use xlink:href="#CMSS17-6e" transform="translate(370.345199 0) scale(0.996264)"/>
      <use xlink:href="#CMSS17-64" transform="translate(449.779255 0) scale(0.996264)"/>
      <use xlink:href="#CMSS17-65" transform="translate(497.984198 0) scale(0.996264)"/>
      <use xlink:href="#CMSS17-6e" transform="translate(539.62302 0) scale(0.996264)"/>
      <use xlink:href="#CMSS17-73" transform="translate(587.827963 0) scale(0.996264)"/>
      <use xlink:href="#CMSS17-69" transform="translate(623.741505 0) scale(0.996264)"/>
      <use xlink:href="#CMSS17-74" transform="translate(645.922228 0) scale(0.996264)"/>
      <use xlink:href="#CMSS17-79" transform="translate(677.151341 0) scale(0.996264)"/>
      <use xlink:href="#CMSS17-28" transform="translate(751.380595 0) scale(0.996264)"/>
      <use xlink:href="#CMSS17-6d" transform="translate(787.81451 0) scale(0.996264)"/>
      <use xlink:href="#CMSS17-4c" transform="translate(862.043764 0) scale(0.996264)"/>
      <use xlink:href="#CMSY10-0" transform="translate(912.730869 36.153639) scale(0.697382)"/>
      <use xlink:href="#CMSS17-31" transform="translate(966.971863 36.153639) scale(0.697382)"/>
      <use xlink:href="#CMSS17-29" transform="translate(1000.260376 0) scale(0.996264)"/>
     </g>
    </g>
   </g>
   <g id="line2d_8">
    <path d="M 23.072727 49.827905 
L 24.39893 49.783026 
L 24.730481 49.536595 
L 25.062032 48.98246 
L 25.725134 47.122426 
L 26.388235 44.272474 
L 27.051337 40.475634 
L 28.709091 30.195405 
L 29.040642 29.550849 
L 29.372193 29.326134 
L 30.035294 29.290698 
L 30.366845 29.381255 
L 30.698396 29.644381 
L 31.029947 30.280031 
L 31.361497 31.68183 
L 31.693048 34.504055 
L 32.687701 45.963409 
L 34.345455 62.499048 
L 36.003209 76.711772 
L 38.324064 94.528718 
L 41.308021 115.300022 
L 41.639572 115.96364 
L 41.971123 115.100942 
L 42.302674 112.456795 
L 43.297326 96.002883 
L 45.949733 49.264225 
L 46.944385 34.965612 
L 47.275936 31.8194 
L 47.607487 30.774455 
L 47.939037 31.181384 
L 48.270588 33.009134 
L 49.265241 43.941349 
L 50.591444 57.805487 
L 52.249198 72.560365 
L 54.238503 88.164014 
L 56.227807 102.177067 
L 57.554011 110.79536 
L 57.885561 111.621456 
L 58.217112 111.487839 
L 58.548663 109.669846 
L 59.211765 101.036264 
L 60.537968 78.716954 
L 62.527273 45.643096 
L 63.521925 32.579575 
L 63.853476 31.025523 
L 64.185027 31.06995 
L 64.516578 32.850495 
L 64.848128 35.532872 
L 66.505882 54.146755 
L 67.832086 66.643744 
L 69.82139 82.921652 
L 71.810695 97.448662 
L 73.8 110.2868 
L 74.131551 111.040245 
L 74.463102 110.779951 
L 74.794652 108.830259 
L 75.457754 100.182124 
L 76.783957 78.004269 
L 78.773262 45.115764 
L 79.436364 35.813148 
L 79.767914 32.313311 
L 80.099465 30.965917 
L 80.431016 31.16085 
L 80.762567 33.168186 
L 81.425668 40.245821 
L 83.414973 60.811775 
L 85.072727 75.121191 
L 87.062032 90.415528 
L 89.051337 104.075594 
L 90.045989 110.164356 
L 90.37754 110.947478 
L 90.709091 110.711028 
L 91.040642 108.780043 
L 91.703743 100.211987 
L 93.029947 78.098984 
L 95.019251 45.224665 
L 95.682353 35.909027 
L 96.013904 32.371464 
L 96.345455 30.982106 
L 96.677005 31.146637 
L 97.008556 33.20658 
L 97.671658 40.27709 
L 99.660963 60.769086 
L 101.318717 75.069336 
L 103.308021 90.363912 
L 105.297326 104.027908 
L 106.291979 110.156076 
L 106.623529 110.932195 
L 106.95508 110.696631 
L 107.286631 108.771571 
L 107.949733 100.200006 
L 109.275936 78.084582 
L 111.265241 45.209516 
L 111.928342 35.895541 
L 112.259893 32.363319 
L 112.591444 30.980243 
L 112.922995 31.149591 
L 113.254545 33.202192 
L 113.917647 40.274228 
L 115.906952 60.775399 
L 117.564706 75.076585 
L 119.554011 90.370835 
L 121.543316 104.033739 
L 122.537968 110.152014 
L 122.869519 110.930048 
L 123.20107 110.695182 
L 123.53262 108.770054 
L 124.527273 96.178178 
L 124.527273 96.178178 
" clip-path="url(#p1afce11505)" style="fill: none; stroke: #66c2a5; stroke-width: 1.5; stroke-linecap: square"/>
   </g>
   <g id="line2d_9">
    <path d="M 23.072727 42.904339 
L 25.393583 42.992242 
L 26.719786 43.28365 
L 27.714439 43.529891 
L 28.045989 43.492946 
L 28.37754 43.199356 
L 28.709091 42.398807 
L 29.372193 39.044924 
L 30.035294 34.789927 
L 31.693048 22.601975 
L 32.024599 21.404783 
L 32.687701 20.525621 
L 33.350802 20.161949 
L 34.345455 19.955695 
L 35.671658 19.936508 
L 37.329412 20.119141 
L 38.987166 20.490903 
L 40.313369 20.994398 
L 40.976471 21.431848 
L 42.302674 23.398948 
L 43.297326 25.183244 
L 44.623529 26.965193 
L 45.949733 28.390668 
L 46.612834 28.940085 
L 46.944385 29.034846 
L 47.275936 28.581383 
L 47.607487 27.315554 
L 48.602139 21.998142 
L 48.93369 21.170675 
L 49.596791 20.452591 
L 50.259893 20.159107 
L 51.254545 20.007614 
L 52.580749 20.035631 
L 54.238503 20.275675 
L 55.896257 20.734294 
L 56.890909 21.188851 
L 57.22246 21.411509 
L 58.217112 22.602841 
L 60.537968 26.195115 
L 61.864171 27.710365 
L 62.858824 28.619013 
L 63.190374 28.784418 
L 63.521925 28.551099 
L 63.853476 27.58718 
L 64.848128 22.253275 
L 65.179679 21.291024 
L 65.842781 20.491484 
L 66.505882 20.178174 
L 67.500535 20.019597 
L 68.826738 20.047391 
L 70.484492 20.290885 
L 72.142246 20.756981 
L 73.136898 21.22174 
L 73.468449 21.452418 
L 74.463102 22.639298 
L 76.452406 25.774521 
L 77.77861 27.356426 
L 79.104813 28.605241 
L 79.436364 28.74911 
L 79.767914 28.441819 
L 80.099465 27.386217 
L 81.094118 22.020351 
L 81.425668 21.174556 
L 82.08877 20.464014 
L 82.751872 20.171229 
L 83.746524 20.020366 
L 85.072727 20.050367 
L 86.730481 20.295181 
L 88.388235 20.76354 
L 89.382888 21.231733 
L 90.045989 21.824309 
L 90.37754 22.143825 
L 91.372193 23.781767 
L 92.698396 25.760815 
L 94.024599 27.343115 
L 95.350802 28.594339 
L 95.682353 28.743064 
L 96.013904 28.452193 
L 96.345455 27.417565 
L 97.340107 22.017379 
L 97.671658 21.169964 
L 98.334759 20.464799 
L 98.997861 20.17232 
L 99.992513 20.020881 
L 101.318717 20.050126 
L 102.976471 20.294165 
L 104.634225 20.761562 
L 105.628877 21.228395 
L 106.291979 21.825512 
L 106.623529 22.14175 
L 107.618182 23.782009 
L 108.944385 25.760901 
L 110.270588 27.343278 
L 111.596791 28.594294 
L 111.928342 28.742349 
L 112.259893 28.449112 
L 112.591444 27.411466 
L 113.586096 22.017315 
L 113.917647 21.170411 
L 114.580749 20.464673 
L 115.24385 20.172203 
L 116.238503 20.020877 
L 117.564706 20.050257 
L 119.22246 20.294448 
L 120.880214 20.762057 
L 121.874866 21.229191 
L 122.537968 21.825106 
L 122.869519 22.142062 
L 123.864171 23.781485 
L 124.527273 24.726033 
L 124.527273 24.726033 
" clip-path="url(#p1afce11505)" style="fill: none; stroke: #808080; stroke-width: 1.5; stroke-linecap: square"/>
   </g>
   <g id="patch_3">
    <path d="M 18 112.14 
L 18 15.12 
" style="fill: none; stroke: #000000; stroke-width: 0.8; stroke-linejoin: miter; stroke-linecap: square"/>
   </g>
   <g id="patch_4">
    <path d="M 18 112.14 
L 129.6 112.14 
" style="fill: none; stroke: #000000; stroke-width: 0.8; stroke-linejoin: miter; stroke-linecap: square"/>
   </g>
   <g id="legend_1">
    <g id="line2d_10">
     <path d="M 138.6 27.62 
L 145 27.62 
" style="fill: none; stroke: #66c2a5; stroke-width: 1.5; stroke-linecap: square"/>
    </g>
    <g id="text_10">
     <!-- Sensitive -->
     <g transform="translate(166.6 31.12) scale(0.1 -0.1)">
      <defs>
       <path id="CMSS17-53" d="M 2797 4230 
C 2515 4396 2208 4544 1690 4544 
C 864 4544 333 3934 333 3309 
C 333 3064 403 2787 653 2504 
C 902 2220 1184 2143 1542 2053 
C 1690 2014 1939 1943 1984 1924 
C 2342 1782 2515 1454 2515 1144 
C 2515 738 2202 307 1645 307 
C 1453 307 890 339 358 829 
L 269 320 
C 794 -64 1363 -128 1651 -128 
C 2438 -128 3002 494 3002 1202 
C 3002 1460 2925 1789 2656 2092 
C 2394 2381 2163 2446 1638 2588 
C 1338 2665 1146 2717 986 2916 
C 877 3058 819 3193 819 3367 
C 819 3728 1126 4121 1690 4121 
C 1971 4121 2336 4063 2707 3715 
L 2797 4230 
z
" transform="scale(0.015625)"/>
       <path id="CMSS17-76" d="M 2675 2752 
L 2176 2752 
L 1747 1555 
C 1613 1164 1421 627 1389 352 
L 1382 352 
C 1370 467 1318 633 1286 748 
C 1248 889 1197 1056 1158 1171 
L 595 2752 
L 83 2752 
L 1094 0 
L 1664 0 
L 2675 2752 
z
" transform="scale(0.015625)"/>
      </defs>
      <use xlink:href="#CMSS17-53" transform="scale(0.996264)"/>
      <use xlink:href="#CMSS17-65" transform="translate(52.048516 0) scale(0.996264)"/>
      <use xlink:href="#CMSS17-6e" transform="translate(93.687338 0) scale(0.996264)"/>
      <use xlink:href="#CMSS17-73" transform="translate(141.892281 0) scale(0.996264)"/>
      <use xlink:href="#CMSS17-69" transform="translate(177.805823 0) scale(0.996264)"/>
      <use xlink:href="#CMSS17-74" transform="translate(199.986546 0) scale(0.996264)"/>
      <use xlink:href="#CMSS17-69" transform="translate(233.818113 0) scale(0.996264)"/>
      <use xlink:href="#CMSS17-76" transform="translate(255.998836 0) scale(0.996264)"/>
      <use xlink:href="#CMSS17-65" transform="translate(298.998978 0) scale(0.996264)"/>
     </g>
    </g>
    <g id="line2d_11">
     <path d="M 138.6 41.557178 
L 145 41.557178 
" style="fill: none; stroke: #808080; stroke-width: 1.5; stroke-linecap: square"/>
    </g>
    <g id="text_11">
     <!-- Phage -->
     <g transform="translate(166.6 45.057178) scale(0.1 -0.1)">
      <defs>
       <path id="CMSS17-68" d="M 2618 1878 
C 2618 2283 2522 2816 1798 2816 
C 1395 2816 1133 2617 947 2399 
L 947 4416 
L 474 4416 
L 474 0 
L 960 0 
L 960 1556 
C 960 1962 1114 2425 1549 2425 
C 2112 2425 2131 2045 2131 1826 
L 2131 0 
L 2618 0 
L 2618 1878 
z
" transform="scale(0.015625)"/>
      </defs>
      <use xlink:href="#CMSS17-50" transform="scale(0.996264)"/>
      <use xlink:href="#CMSS17-68" transform="translate(59.735586 0) scale(0.996264)"/>
      <use xlink:href="#CMSS17-61" transform="translate(107.940529 0) scale(0.996264)"/>
      <use xlink:href="#CMSS17-67" transform="translate(152.86245 0) scale(0.996264)"/>
      <use xlink:href="#CMSS17-65" transform="translate(199.706074 0) scale(0.996264)"/>
     </g>
    </g>
   </g>
  </g>
 </g>
 <defs>
  <clipPath id="p1afce11505">
   <rect x="18" y="15.12" width="111.6" height="97.02"/>
  </clipPath>
 </defs>
</svg>
